<?xml version="1.0" encoding="UTF-8"?>
<svg id="Layer_2" data-name="Layer 2" xmlns="http://www.w3.org/2000/svg" viewBox="0 0 116.58 179.72">
  <defs>
    <style>
      .cls-1 {
        fill: #00a84f;
      }

      .cls-1, .cls-2 {
        stroke: #fff;
        stroke-miterlimit: 10;
        stroke-width: 1.62px;
      }

      .cls-2 {
        fill: #0077bc;
      }
    </style>
  </defs>
  <g id="Layer_1-2" data-name="Layer 1">
    <g>
      <g>
        <path class="cls-1" d="M95.35,86.09l-51.05-21.49c-2.8-1.18-5.07-4.59-5.07-7.63v-23.26c0-3.04,2.27-4.54,5.07-3.36l57.14,24.06c9.55,4.02,14.33,9.29,14.33,14.56,0,5.27-4.78,10.54-14.33,14.56l-6.09,2.56Z"/>
        <path class="cls-1" d="M71.41,130.43v31.17c0,3.04-2.27,6.45-5.07,7.63l-22.04,9.28c-2.8,1.18-5.07-.33-5.07-3.36v-59.93c0-3.04,2.27-6.45,5.07-7.63l57.14-24.06c9.55-4.02,14.33-9.29,14.33-14.56v29.49c0,8.26-4.78,15.31-14.33,19.33l-30.03,12.64Z"/>
      </g>
      <g>
        <path class="cls-2" d="M56.93,56.96L5.88,35.47c-2.8-1.18-5.07-4.59-5.07-7.63V4.58C.81,1.54,3.08.03,5.88,1.21l57.14,24.06c9.55,4.02,14.33,9.29,14.33,14.56,0,5.27-4.78,10.54-14.33,14.56l-6.09,2.56Z"/>
        <path class="cls-2" d="M32.98,101.3v31.17c0,3.04-2.27,6.45-5.07,7.63l-22.04,9.28c-2.8,1.18-5.07-.33-5.07-3.36v-59.93c0-3.04,2.27-6.45,5.07-7.63l57.14-24.06c9.55-4.02,14.33-9.29,14.33-14.56v29.49c0,8.26-4.78,15.31-14.33,19.33l-30.03,12.64Z"/>
      </g>
    </g>
  </g>
</svg>